<?xml version="1.0" encoding="utf-8"?>
<!-- Generator: Adobe Illustrator 16.0.0, SVG Export Plug-In . SVG Version: 6.00 Build 0)  -->
<!DOCTYPE svg PUBLIC "-//W3C//DTD SVG 1.1//EN" "http://www.w3.org/Graphics/SVG/1.1/DTD/svg11.dtd">
<svg version="1.1" id="Layer_1" xmlns="http://www.w3.org/2000/svg" xmlns:xlink="http://www.w3.org/1999/xlink" x="0px" y="0px"
	 width="560px" height="182px" viewBox="0 0 560 182" enable-background="new 0 0 560 182" xml:space="preserve">
<g>
	<path fill="#1A1A1A" d="M83.187,66.698c0,0.456-0.342,1.071-1.025,1.846c-1.275-0.318-2.553-0.479-3.828-0.479
		c-2.689,0-4.945,0.593-6.768,1.777c-2.188,1.367-3.281,3.305-3.281,5.811c0,1.596,1.162,3.623,3.486,6.084
		c3.51,3.691,5.674,6.176,6.494,7.451c2.324,3.464,3.486,7.177,3.486,11.142c0,2.324-0.455,4.785-1.367,7.383
		c-1.049,2.871-2.369,4.969-3.965,6.289c-3.373,2.918-7.314,5.379-11.826,7.383c-4.877,2.096-9.365,3.145-13.467,3.145
		c-0.912,0-2.951-2.473-6.118-7.416c-3.168-4.945-4.751-7.965-4.751-9.059c0-0.41,0.25-0.66,0.752-0.752
		c3.189-0.592,6.402-1.184,9.639-1.777c4.01-1.275,6.016-3.371,6.016-6.289c0-2.004-1.162-4.328-3.486-6.973
		c-4.147-4.602-6.312-7.041-6.494-7.314c-2.324-3.281-3.486-6.744-3.486-10.391c0-6.836,3.463-12.646,10.391-17.432
		c6.197-4.238,12.828-6.357,19.892-6.357c0.729,0,2.529,2.45,5.4,7.349C81.751,63.018,83.187,65.877,83.187,66.698z"/>
	<path fill="#1A1A1A" d="M160.159,73.26c0,8.842-0.273,14.219-0.82,16.133c-0.684,2.279-5.674,10.527-14.971,24.746
		c-1.459,2.234-5.219,7.406-11.279,15.518c-6.699,8.932-10.505,13.649-11.416,14.151c-1.094,0.684-8.09,1.025-20.986,1.025
		c-1.96,0-3.281-0.229-3.965-0.684c-0.593-1.869-1.345-4.079-2.256-6.632c-0.729-1.596-1.459-3.213-2.188-4.854
		c-1.049-2.369-1.572-3.941-1.572-4.717c0-0.865,0.387-1.299,1.162-1.299c12.669,0,19.004-2.895,19.004-8.682
		c0-0.5-3.1-5.035-9.297-13.604c-6.426-8.795-9.958-14.355-10.596-16.679c-0.365-1.321-0.547-6.038-0.547-14.15
		c0-1.641,0.045-4.112,0.137-7.417c0.091-3.304,0.137-5.776,0.137-7.417c0-1.185,0.752-1.777,2.256-1.777
		c2.324,0,5.845,0.068,10.562,0.205s8.237,0.205,10.562,0.205c0.957,0,1.436,0.707,1.436,2.119c0,1.276-0.068,3.202-0.205,5.776
		c-0.137,2.575-0.205,4.501-0.205,5.776c0,5.742,0.091,9.639,0.273,11.689c0.137,1.596,1.504,4.558,4.102,8.886
		c2.734,4.512,4.717,6.768,5.947,6.768c1.048,0,2.825-2.232,5.332-6.699c2.324-4.238,3.577-7.085,3.76-8.544
		c0.455-4.01,0.684-8.362,0.684-13.057c0-1.23-0.114-3.099-0.342-5.605c-0.229-2.506-0.342-4.397-0.342-5.674
		c0-0.865,0.479-1.299,1.436-1.299c2.324,0,5.799-0.091,10.425-0.273c4.625-0.182,8.101-0.273,10.425-0.273
		c1.185,0,1.982,0.593,2.393,1.777C159.84,60.796,160.159,65.65,160.159,73.26z"/>
	<path fill="#1A1A1A" d="M242.464,88.573c0,9.57-2.734,17.568-8.203,23.994c-5.834,6.836-13.444,10.254-22.832,10.254
		c-6.836,0-12.351-1.959-16.543-5.879c-0.319-0.273-0.593-0.41-0.82-0.41c-0.456,0-0.878,0.844-1.265,2.529
		c-0.388,1.688-0.854,2.621-1.401,2.803c-0.775,0.229-7.27,0.342-19.482,0.342c-2.871,0-4.307-0.523-4.307-1.572
		c0-0.137,0.045-0.479,0.137-1.025c0.911-7.246,1.367-21.055,1.367-41.425c0-19.459-0.684-36.39-2.051-50.791l-0.068-0.752
		c0-0.729,0.706-1.139,2.119-1.23c1.002-0.045,4.967-0.387,11.895-1.025c4.876-0.455,8.841-0.684,11.895-0.684
		c0.865,0,1.299,0.752,1.299,2.256c0,1.777-0.114,4.125-0.342,7.041c-0.273,3.601-0.434,5.971-0.479,7.109
		c-0.229,4.512-0.342,10.664-0.342,18.457c0,1.413,0.364,2.119,1.094,2.119c0.364,0,0.706-0.182,1.025-0.547
		c4.102-4.375,9.479-6.562,16.133-6.562c9.98,0,17.773,3.396,23.379,10.186C239.866,70.047,242.464,78.319,242.464,88.573z
		 M217.718,87.821c0-3.782-1.162-6.983-3.486-9.604c-2.324-2.62-5.355-3.931-9.092-3.931c-3.828,0-6.848,1.311-9.058,3.931
		c-2.211,2.621-3.315,5.868-3.315,9.741c0,4.011,1.07,7.246,3.213,9.707c2.278,2.598,5.377,3.896,9.297,3.896
		c3.873,0,6.949-1.344,9.229-4.033C216.646,95.021,217.718,91.785,217.718,87.821z"/>
	<path fill="#1A1A1A" d="M276.097,90.624c0,3.328,0.068,8.283,0.205,14.869s0.205,11.518,0.205,14.799
		c0,0.957-0.57,1.527-1.709,1.709c-1.55,0.273-5.036,0.41-10.459,0.41c-5.469,0-8.979-0.137-10.527-0.41
		c-1.003-0.182-1.618-0.479-1.846-0.889c-0.092-0.182-0.137-0.865-0.137-2.051c0-3.145,0.068-7.871,0.205-14.184
		s0.205-11.062,0.205-14.253c0-12.942-0.502-23.242-1.504-30.898c-0.092-0.729-0.137-1.207-0.137-1.436
		c0-0.911,0.615-1.367,1.846-1.367c1.275,0,3.224,0.137,5.845,0.41c2.62,0.273,4.591,0.41,5.913,0.41
		c1.321,0,3.304-0.113,5.947-0.342c2.643-0.228,4.625-0.342,5.947-0.342c1.094,0,1.641,0.456,1.641,1.367
		c0,0.183-0.046,0.615-0.137,1.299C276.598,68.612,276.097,78.912,276.097,90.624z M277.874,39.833
		c0,7.93-4.467,11.895-13.398,11.895c-3.828,0-6.996-1.002-9.502-3.008c-2.734-2.188-4.102-5.149-4.102-8.887
		c0-3.555,1.412-6.471,4.238-8.75c2.598-2.096,5.719-3.145,9.365-3.145c3.555,0,6.631,1.071,9.229,3.213
		C276.483,33.43,277.874,36.324,277.874,39.833z"/>
	<path fill="#1A1A1A" d="M314.173,80.848c0,12.441,0.045,21.99,0.137,28.642c0,1.049,0.068,2.85,0.205,5.4
		c0.137,2.324,0.205,4.125,0.205,5.4c0,0.957-0.57,1.527-1.709,1.709c-2.051,0.365-5.742,0.547-11.074,0.547
		c-5.469,0-8.955-0.182-10.459-0.547c-1.003-0.227-1.572-0.842-1.709-1.846c0-0.137,0-1.115,0-2.939
		c0-4.055,0.045-10.127,0.137-18.217c0.091-8.089,0.137-14.139,0.137-18.15c0-19.141,0.022-27.867,0.068-26.182
		c-0.137-10.071-0.707-18.753-1.709-26.045c-0.092-0.501-0.137-0.889-0.137-1.162c0-1.002,0.592-1.504,1.777-1.504h24.404
		c1.139,0,1.663,0.479,1.572,1.436l-0.068,1.23C314.765,48.309,314.173,65.718,314.173,80.848z"/>
	<path fill="#1A1A1A" d="M395.384,87.821c0,3.509,0.205,8.728,0.615,15.654c0.41,6.928,0.615,12.123,0.615,15.586
		c0,1.824-0.798,2.803-2.393,2.939c-5.651,0.41-12.123,0.615-19.414,0.615c-0.866,0-1.447-1.309-1.743-3.93
		c-0.297-2.621-0.649-3.953-1.06-4c-0.365,0.184-0.844,0.57-1.436,1.162c-5.104,5.15-10.573,7.725-16.406,7.725
		c-8.887,0-16.247-3.508-22.08-10.527c-5.515-6.562-8.271-14.4-8.271-23.515c0-10.527,2.848-19.004,8.545-25.43
		c5.924-6.653,14.036-9.98,24.336-9.98c7.154,0,12.806,2.507,16.953,7.52c0.182,0.229,0.342,0.342,0.479,0.342
		c0.41,0,0.877-1.104,1.401-3.315c0.523-2.21,1.15-3.315,1.88-3.315c1.686,0,4.898,0.479,9.639,1.436
		c4.512,0.912,7.747,1.687,9.707,2.324c0.684,0.273,1.025,0.639,1.025,1.094c0,0.183-0.068,0.661-0.205,1.436
		C396.112,69.888,395.384,78.616,395.384,87.821z M373.372,88.231c0-3.873-1.22-7.075-3.657-9.604
		c-2.438-2.529-5.617-3.794-9.536-3.794c-3.92,0-7.087,1.254-9.502,3.76c-2.416,2.507-3.623,5.72-3.623,9.639
		c0,3.691,1.275,6.859,3.828,9.501c2.552,2.645,5.65,3.965,9.297,3.965c3.873,0,7.041-1.264,9.502-3.793
		S373.372,92.15,373.372,88.231z"/>
</g>
<path fill="#990000" d="M417.999,40c32.795,8.468,67.205,8.468,100,0c-8.468,32.795-8.468,67.205,0,100
	c-32.795-8.468-67.205-8.468-100,0C426.467,107.205,426.467,72.795,417.999,40z M442.999,65v50h50V65H442.999z"/>
<circle fill="#990000" cx="467.999" cy="90" r="15"/>
<g>
</g>
<g>
</g>
<g>
</g>
<g>
</g>
<g>
</g>
<g>
</g>
<g>
</g>
<g>
</g>
<g>
</g>
<g>
</g>
<g>
</g>
<g>
</g>
<g>
</g>
<g>
</g>
<g>
</g>
</svg>
