<?xml version="1.0" encoding="utf-8"?>
<!-- Generator: Adobe Illustrator 16.0.0, SVG Export Plug-In . SVG Version: 6.00 Build 0)  -->
<!DOCTYPE svg PUBLIC "-//W3C//DTD SVG 1.1//EN" "http://www.w3.org/Graphics/SVG/1.1/DTD/svg11.dtd">
<svg version="1.1" id="Layer_1" xmlns="http://www.w3.org/2000/svg" xmlns:xlink="http://www.w3.org/1999/xlink" x="0px" y="0px"
	 width="560px" height="210px" viewBox="0 0 560 210" enable-background="new 0 0 560 210" xml:space="preserve">
<g>
	<path fill="#1A1A1A" d="M83.187,78.698c0,0.456-0.342,1.071-1.025,1.846c-1.275-0.318-2.553-0.479-3.828-0.479
		c-2.689,0-4.945,0.593-6.768,1.777c-2.188,1.367-3.281,3.305-3.281,5.811c0,1.596,1.162,3.623,3.486,6.083
		c3.51,3.691,5.674,6.176,6.494,7.451c2.324,3.465,3.486,7.178,3.486,11.143c0,2.324-0.455,4.785-1.367,7.383
		c-1.049,2.871-2.369,4.969-3.965,6.289c-3.373,2.918-7.314,5.379-11.826,7.383c-4.877,2.096-9.365,3.145-13.467,3.145
		c-0.912,0-2.951-2.473-6.118-7.416c-3.168-4.945-4.751-7.965-4.751-9.059c0-0.41,0.25-0.66,0.752-0.752
		c3.189-0.592,6.402-1.184,9.639-1.777c4.01-1.275,6.016-3.371,6.016-6.289c0-2.004-1.162-4.328-3.486-6.973
		c-4.147-4.602-6.312-7.041-6.494-7.314c-2.324-3.281-3.486-6.744-3.486-10.39c0-6.836,3.463-12.646,10.391-17.432
		c6.197-4.238,12.828-6.357,19.892-6.357c0.729,0,2.529,2.45,5.4,7.349C81.751,75.018,83.187,77.877,83.187,78.698z"/>
	<path fill="#1A1A1A" d="M160.159,85.26c0,8.841-0.273,14.218-0.82,16.132c-0.684,2.279-5.674,10.527-14.971,24.746
		c-1.459,2.234-5.219,7.406-11.279,15.518c-6.699,8.932-10.505,13.649-11.416,14.151c-1.094,0.684-8.09,1.025-20.986,1.025
		c-1.96,0-3.281-0.229-3.965-0.684c-0.593-1.869-1.345-4.079-2.256-6.632c-0.729-1.596-1.459-3.213-2.188-4.854
		c-1.049-2.369-1.572-3.941-1.572-4.717c0-0.865,0.387-1.299,1.162-1.299c12.669,0,19.004-2.895,19.004-8.682
		c0-0.5-3.1-5.035-9.297-13.604c-6.426-8.795-9.958-14.355-10.596-16.68c-0.365-1.32-0.547-6.037-0.547-14.15
		c0-1.641,0.045-4.112,0.137-7.417c0.091-3.304,0.137-5.776,0.137-7.417c0-1.185,0.752-1.777,2.256-1.777
		c2.324,0,5.845,0.068,10.562,0.205s8.237,0.205,10.562,0.205c0.957,0,1.436,0.707,1.436,2.119c0,1.276-0.068,3.202-0.205,5.776
		c-0.137,2.575-0.205,4.501-0.205,5.776c0,5.742,0.091,9.638,0.273,11.689c0.137,1.596,1.504,4.559,4.102,8.887
		c2.734,4.512,4.717,6.768,5.947,6.768c1.048,0,2.825-2.232,5.332-6.699c2.324-4.238,3.577-7.086,3.76-8.545
		c0.455-4.01,0.684-8.362,0.684-13.056c0-1.23-0.114-3.099-0.342-5.605c-0.229-2.506-0.342-4.397-0.342-5.674
		c0-0.865,0.479-1.299,1.436-1.299c2.324,0,5.799-0.091,10.425-0.273c4.625-0.182,8.101-0.273,10.425-0.273
		c1.185,0,1.982,0.593,2.393,1.777C159.84,72.796,160.159,77.65,160.159,85.26z"/>
	<path fill="#1A1A1A" d="M242.464,100.572c0,9.57-2.734,17.568-8.203,23.994c-5.834,6.836-13.444,10.254-22.832,10.254
		c-6.836,0-12.351-1.959-16.543-5.879c-0.319-0.273-0.593-0.41-0.82-0.41c-0.456,0-0.878,0.844-1.265,2.529
		c-0.388,1.688-0.854,2.621-1.401,2.803c-0.775,0.229-7.27,0.342-19.482,0.342c-2.871,0-4.307-0.523-4.307-1.572
		c0-0.137,0.045-0.479,0.137-1.025c0.911-7.246,1.367-21.055,1.367-41.425c0-19.459-0.684-36.39-2.051-50.791l-0.068-0.752
		c0-0.729,0.706-1.139,2.119-1.23c1.002-0.045,4.967-0.387,11.895-1.025c4.876-0.455,8.841-0.684,11.895-0.684
		c0.865,0,1.299,0.752,1.299,2.256c0,1.777-0.114,4.125-0.342,7.041c-0.273,3.601-0.434,5.971-0.479,7.109
		c-0.229,4.512-0.342,10.664-0.342,18.457c0,1.413,0.364,2.119,1.094,2.119c0.364,0,0.706-0.182,1.025-0.547
		c4.102-4.375,9.479-6.562,16.133-6.562c9.98,0,17.773,3.396,23.379,10.186C239.866,82.047,242.464,90.319,242.464,100.572z
		 M217.718,99.82c0-3.781-1.162-6.982-3.486-9.604c-2.324-2.62-5.355-3.931-9.092-3.931c-3.828,0-6.848,1.311-9.058,3.931
		c-2.211,2.622-3.315,5.868-3.315,9.741c0,4.012,1.07,7.246,3.213,9.707c2.278,2.598,5.377,3.896,9.297,3.896
		c3.873,0,6.949-1.344,9.229-4.033C216.646,107.021,217.718,103.785,217.718,99.82z"/>
	<path fill="#1A1A1A" d="M276.097,102.623c0,3.328,0.068,8.283,0.205,14.869s0.205,11.518,0.205,14.799
		c0,0.957-0.57,1.527-1.709,1.709c-1.55,0.273-5.036,0.41-10.459,0.41c-5.469,0-8.979-0.137-10.527-0.41
		c-1.003-0.182-1.618-0.479-1.846-0.889c-0.092-0.182-0.137-0.865-0.137-2.051c0-3.145,0.068-7.871,0.205-14.184
		s0.205-11.062,0.205-14.254c0-12.942-0.502-23.242-1.504-30.898c-0.092-0.729-0.137-1.207-0.137-1.436
		c0-0.911,0.615-1.367,1.846-1.367c1.275,0,3.224,0.137,5.845,0.41c2.62,0.273,4.591,0.41,5.913,0.41
		c1.321,0,3.304-0.113,5.947-0.342c2.643-0.228,4.625-0.342,5.947-0.342c1.094,0,1.641,0.456,1.641,1.367
		c0,0.183-0.046,0.615-0.137,1.299C276.598,80.612,276.097,90.912,276.097,102.623z M277.874,51.833
		c0,7.93-4.467,11.895-13.398,11.895c-3.828,0-6.996-1.002-9.502-3.008c-2.734-2.188-4.102-5.149-4.102-8.887
		c0-3.555,1.412-6.471,4.238-8.75c2.598-2.096,5.719-3.145,9.365-3.145c3.555,0,6.631,1.071,9.229,3.213
		C276.483,45.43,277.874,48.324,277.874,51.833z"/>
	<path fill="#1A1A1A" d="M314.173,92.848c0,12.441,0.045,21.99,0.137,28.643c0,1.049,0.068,2.85,0.205,5.4
		c0.137,2.324,0.205,4.125,0.205,5.4c0,0.957-0.57,1.527-1.709,1.709c-2.051,0.365-5.742,0.547-11.074,0.547
		c-5.469,0-8.955-0.182-10.459-0.547c-1.003-0.227-1.572-0.842-1.709-1.846c0-0.137,0-1.115,0-2.939
		c0-4.055,0.045-10.127,0.137-18.217c0.091-8.09,0.137-14.139,0.137-18.15c0-19.14,0.022-27.867,0.068-26.181
		c-0.137-10.071-0.707-18.753-1.709-26.045c-0.092-0.501-0.137-0.889-0.137-1.162c0-1.002,0.592-1.504,1.777-1.504h24.404
		c1.139,0,1.663,0.479,1.572,1.436l-0.068,1.23C314.765,60.309,314.173,77.718,314.173,92.848z"/>
	<path fill="#1A1A1A" d="M395.384,99.82c0,3.51,0.205,8.729,0.615,15.654c0.41,6.928,0.615,12.123,0.615,15.586
		c0,1.824-0.798,2.803-2.393,2.939c-5.651,0.41-12.123,0.615-19.414,0.615c-0.866,0-1.447-1.309-1.743-3.93
		c-0.297-2.621-0.649-3.953-1.06-4c-0.365,0.184-0.844,0.57-1.436,1.162c-5.104,5.15-10.573,7.725-16.406,7.725
		c-8.887,0-16.247-3.508-22.08-10.527c-5.515-6.562-8.271-14.4-8.271-23.516c0-10.527,2.848-19.003,8.545-25.429
		c5.924-6.653,14.036-9.98,24.336-9.98c7.154,0,12.806,2.507,16.953,7.52c0.182,0.229,0.342,0.342,0.479,0.342
		c0.41,0,0.877-1.104,1.401-3.315c0.523-2.21,1.15-3.315,1.88-3.315c1.686,0,4.898,0.479,9.639,1.436
		c4.512,0.912,7.747,1.687,9.707,2.324c0.684,0.273,1.025,0.639,1.025,1.094c0,0.183-0.068,0.661-0.205,1.436
		C396.112,81.888,395.384,90.616,395.384,99.82z M373.372,100.23c0-3.873-1.22-7.074-3.657-9.604
		c-2.438-2.529-5.617-3.794-9.536-3.794c-3.92,0-7.087,1.254-9.502,3.76c-2.416,2.507-3.623,5.72-3.623,9.638
		c0,3.691,1.275,6.859,3.828,9.502c2.552,2.645,5.65,3.965,9.297,3.965c3.873,0,7.041-1.264,9.502-3.793
		S373.372,104.15,373.372,100.23z"/>
</g>
<path fill="#990000" d="M417.999,40c32.795,8.468,67.205,8.468,100,0c-8.468,32.795-8.468,67.205,0,100
	c-32.795-8.468-67.205-8.468-100,0C426.467,107.205,426.467,72.795,417.999,40z M442.999,65v50h50V65H442.999z"/>
<circle fill="#990000" cx="467.999" cy="90" r="15"/>
<g>
	<path d="M150.339,160.742c0.083,0.693,0.261,1.186,0.536,1.477c0.485,0.52,1.383,0.779,2.693,0.779c0.769,0,1.38-0.113,1.833-0.342
		c0.454-0.228,0.68-0.569,0.68-1.025c0-0.438-0.183-0.77-0.548-0.998c-0.365-0.228-1.724-0.619-4.076-1.176
		c-1.693-0.419-2.887-0.943-3.579-1.572c-0.693-0.619-1.039-1.513-1.039-2.68c0-1.376,0.541-2.559,1.624-3.548
		s2.605-1.483,4.569-1.483c1.863,0,3.382,0.371,4.556,1.114c1.173,0.743,1.847,2.026,2.021,3.849h-3.896
		c-0.055-0.501-0.196-0.897-0.425-1.189c-0.43-0.528-1.161-0.793-2.194-0.793c-0.85,0-1.456,0.133-1.816,0.396
		c-0.361,0.265-0.542,0.574-0.542,0.93c0,0.447,0.192,0.771,0.576,0.971c0.383,0.21,1.739,0.57,4.068,1.08
		c1.552,0.365,2.716,0.916,3.491,1.654c0.766,0.748,1.148,1.682,1.148,2.803c0,1.477-0.55,2.682-1.651,3.616
		s-2.801,1.401-5.103,1.401c-2.347,0-4.08-0.494-5.199-1.483c-1.119-0.989-1.678-2.249-1.678-3.78H150.339z"/>
	<path d="M163.478,168.357l0.492,0.027c0.383,0.018,0.747,0.004,1.094-0.041c0.346-0.046,0.638-0.15,0.875-0.314
		c0.228-0.155,0.439-0.479,0.636-0.971c0.196-0.492,0.28-0.793,0.253-0.902l-5.476-15.559h4.334l3.254,10.992l3.076-10.992h4.143
		l-5.109,14.656c-0.987,2.825-1.769,4.578-2.343,5.257c-0.575,0.679-1.725,1.019-3.449,1.019c-0.347,0-0.625-0.002-0.835-0.007
		s-0.525-0.021-0.944-0.048V168.357z"/>
	<path d="M181.483,160.742c0.083,0.693,0.261,1.186,0.536,1.477c0.485,0.52,1.383,0.779,2.693,0.779c0.769,0,1.38-0.113,1.833-0.342
		c0.454-0.228,0.68-0.569,0.68-1.025c0-0.438-0.183-0.77-0.548-0.998c-0.365-0.228-1.724-0.619-4.076-1.176
		c-1.693-0.419-2.887-0.943-3.579-1.572c-0.693-0.619-1.039-1.513-1.039-2.68c0-1.376,0.541-2.559,1.624-3.548
		s2.605-1.483,4.569-1.483c1.863,0,3.382,0.371,4.556,1.114c1.173,0.743,1.847,2.026,2.021,3.849h-3.896
		c-0.055-0.501-0.196-0.897-0.425-1.189c-0.43-0.528-1.161-0.793-2.194-0.793c-0.85,0-1.456,0.133-1.816,0.396
		c-0.361,0.265-0.542,0.574-0.542,0.93c0,0.447,0.192,0.771,0.576,0.971c0.383,0.21,1.739,0.57,4.068,1.08
		c1.552,0.365,2.716,0.916,3.491,1.654c0.766,0.748,1.148,1.682,1.148,2.803c0,1.477-0.55,2.682-1.651,3.616
		s-2.801,1.401-5.103,1.401c-2.347,0-4.08-0.494-5.199-1.483c-1.119-0.989-1.678-2.249-1.678-3.78H181.483z"/>
	<path d="M192.503,153.51v-2.775h2.078v-4.156h3.855v4.156h2.42v2.775h-2.42v7.875c0,0.611,0.077,0.991,0.232,1.142
		c0.155,0.15,0.629,0.226,1.422,0.226c0.118,0,0.244-0.002,0.376-0.007c0.132-0.005,0.262-0.011,0.39-0.021v2.912l-1.846,0.068
		c-1.841,0.063-3.099-0.255-3.773-0.957c-0.438-0.446-0.656-1.135-0.656-2.064v-9.174H192.503z"/>
	<path d="M213.069,150.899c1.04,0.466,1.898,1.2,2.575,2.204c0.61,0.887,1.006,1.913,1.188,3.082
		c0.104,0.684,0.147,1.67,0.128,2.957h-10.854c0.061,1.495,0.58,2.543,1.559,3.145c0.595,0.374,1.311,0.561,2.148,0.561
		c0.887,0,1.608-0.228,2.163-0.684c0.303-0.246,0.57-0.588,0.802-1.025h3.978c-0.105,0.885-0.586,1.782-1.444,2.693
		c-1.335,1.449-3.204,2.174-5.607,2.174c-1.983,0-3.733-0.611-5.249-1.834c-1.516-1.222-2.274-3.211-2.274-5.966
		c0-2.581,0.684-4.562,2.053-5.938s3.145-2.066,5.329-2.066C210.861,150.201,212.03,150.434,213.069,150.899z M207.24,154.266
		c-0.551,0.567-0.896,1.336-1.038,2.307h6.713c-0.071-1.034-0.417-1.819-1.038-2.355c-0.621-0.535-1.392-0.803-2.311-0.803
		C208.566,153.414,207.791,153.697,207.24,154.266z"/>
	<path d="M237.524,150.652c0.638,0.256,1.217,0.702,1.736,1.34c0.419,0.52,0.702,1.158,0.848,1.914
		c0.091,0.502,0.137,1.235,0.137,2.201l-0.027,9.393h-3.992v-9.488c0-0.564-0.091-1.029-0.273-1.395
		c-0.347-0.692-0.984-1.039-1.914-1.039c-1.076,0-1.818,0.447-2.229,1.34c-0.21,0.475-0.314,1.044-0.314,1.709v8.873h-3.924v-8.873
		c0-0.884-0.091-1.526-0.273-1.928c-0.328-0.72-0.971-1.08-1.928-1.08c-1.112,0-1.859,0.36-2.242,1.08
		c-0.21,0.41-0.314,1.021-0.314,1.832v8.969h-3.951v-14.875h3.787v2.174c0.483-0.774,0.938-1.326,1.367-1.654
		c0.756-0.583,1.736-0.875,2.939-0.875c1.139,0,2.06,0.251,2.762,0.752c0.565,0.465,0.993,1.062,1.285,1.791
		c0.51-0.875,1.144-1.518,1.9-1.928c0.802-0.41,1.695-0.615,2.68-0.615C236.239,150.27,236.886,150.397,237.524,150.652z"/>
	<path d="M246.849,160.742c0.083,0.693,0.261,1.186,0.536,1.477c0.485,0.52,1.383,0.779,2.693,0.779c0.769,0,1.38-0.113,1.833-0.342
		c0.454-0.228,0.68-0.569,0.68-1.025c0-0.438-0.183-0.77-0.548-0.998c-0.365-0.228-1.724-0.619-4.076-1.176
		c-1.693-0.419-2.887-0.943-3.579-1.572c-0.693-0.619-1.039-1.513-1.039-2.68c0-1.376,0.541-2.559,1.624-3.548
		s2.605-1.483,4.569-1.483c1.863,0,3.382,0.371,4.556,1.114c1.173,0.743,1.847,2.026,2.021,3.849h-3.896
		c-0.055-0.501-0.196-0.897-0.425-1.189c-0.43-0.528-1.161-0.793-2.194-0.793c-0.85,0-1.456,0.133-1.816,0.396
		c-0.361,0.265-0.542,0.574-0.542,0.93c0,0.447,0.192,0.771,0.576,0.971c0.383,0.21,1.739,0.57,4.068,1.08
		c1.552,0.365,2.716,0.916,3.491,1.654c0.766,0.748,1.148,1.682,1.148,2.803c0,1.477-0.55,2.682-1.651,3.616
		s-2.801,1.401-5.103,1.401c-2.347,0-4.08-0.494-5.199-1.483c-1.119-0.989-1.678-2.249-1.678-3.78H246.849z"/>
	<path d="M279.903,152.389c1.114,1.413,1.672,3.236,1.672,5.469c0,2.315-0.55,4.234-1.649,5.756
		c-1.099,1.522-2.634,2.283-4.604,2.283c-1.237,0-2.23-0.246-2.982-0.738c-0.449-0.291-0.935-0.802-1.457-1.531v1.873h-3.842
		v-20.125h3.896v7.164c0.495-0.692,1.041-1.221,1.637-1.586c0.707-0.455,1.605-0.684,2.697-0.684
		C277.245,150.27,278.788,150.977,279.903,152.389z M276.646,161.467c0.561-0.811,0.841-1.877,0.841-3.199
		c0-1.057-0.138-1.932-0.414-2.625c-0.524-1.312-1.489-1.969-2.895-1.969c-1.424,0-2.403,0.643-2.936,1.928
		c-0.276,0.684-0.414,1.568-0.414,2.652c0,1.276,0.285,2.334,0.854,3.172c0.57,0.839,1.438,1.258,2.605,1.258
		C275.3,162.684,276.086,162.278,276.646,161.467z"/>
	<path d="M288.288,148.82h-3.951v-3.596h3.951V148.82z M284.337,150.598h3.951V165.5h-3.951V150.598z"/>
	<path d="M304.489,163.677c-1.258,1.553-3.167,2.329-5.729,2.329s-4.471-0.776-5.729-2.329c-1.258-1.552-1.887-3.422-1.887-5.607
		c0-2.149,0.629-4.011,1.887-5.587c1.258-1.575,3.167-2.363,5.729-2.363s4.471,0.788,5.729,2.363
		c1.258,1.576,1.887,3.438,1.887,5.587C306.376,160.255,305.747,162.125,304.489,163.677z M301.372,161.523
		c0.61-0.811,0.916-1.961,0.916-3.454s-0.306-2.642-0.916-3.447s-1.485-1.208-2.625-1.208s-2.017,0.402-2.632,1.208
		s-0.923,1.954-0.923,3.447s0.308,2.644,0.923,3.454s1.492,1.215,2.632,1.215S300.762,162.334,301.372,161.523z"/>
	<path d="M313.144,165.5h-3.896v-20.152h3.896V165.5z"/>
	<path d="M329.372,163.677c-1.258,1.553-3.167,2.329-5.729,2.329s-4.471-0.776-5.729-2.329c-1.258-1.552-1.887-3.422-1.887-5.607
		c0-2.149,0.629-4.011,1.887-5.587c1.258-1.575,3.167-2.363,5.729-2.363s4.471,0.788,5.729,2.363
		c1.258,1.576,1.887,3.438,1.887,5.587C331.259,160.255,330.63,162.125,329.372,163.677z M326.255,161.523
		c0.61-0.811,0.916-1.961,0.916-3.454s-0.306-2.642-0.916-3.447s-1.485-1.208-2.625-1.208s-2.017,0.402-2.632,1.208
		s-0.923,1.954-0.923,3.447s0.308,2.644,0.923,3.454s1.492,1.215,2.632,1.215S325.645,162.334,326.255,161.523z"/>
	<path d="M341.42,150.584c0.946,0.393,1.711,1.112,2.294,2.16v-2.146h3.801v14.137c0,1.923-0.323,3.372-0.971,4.348
		c-1.112,1.677-3.245,2.516-6.398,2.516c-1.905,0-3.459-0.374-4.662-1.121c-1.203-0.748-1.868-1.864-1.996-3.35h4.238
		c0.109,0.455,0.287,0.783,0.533,0.984c0.419,0.355,1.126,0.533,2.119,0.533c1.403,0,2.343-0.47,2.816-1.408
		c0.31-0.602,0.465-1.613,0.465-3.035v-0.957c-0.374,0.639-0.774,1.117-1.203,1.436c-0.774,0.593-1.782,0.889-3.021,0.889
		c-1.914,0-3.443-0.672-4.587-2.017s-1.716-3.165-1.716-5.462c0-2.215,0.551-4.076,1.652-5.585s2.662-2.263,4.684-2.263
		C340.214,150.242,340.864,150.356,341.42,150.584z M342.747,161.269c0.626-0.688,0.939-1.784,0.939-3.288
		c0-1.412-0.297-2.488-0.892-3.227s-1.392-1.107-2.39-1.107c-1.361,0-2.301,0.643-2.818,1.928c-0.272,0.684-0.408,1.527-0.408,2.529
		c0,0.866,0.146,1.637,0.436,2.311c0.526,1.258,1.471,1.887,2.832,1.887C341.354,162.301,342.121,161.957,342.747,161.269z"/>
	<path d="M351.739,168.357l0.492,0.027c0.383,0.018,0.747,0.004,1.094-0.041c0.347-0.046,0.638-0.15,0.875-0.314
		c0.228-0.155,0.439-0.479,0.636-0.971s0.28-0.793,0.253-0.902l-5.476-15.559h4.334l3.254,10.992l3.076-10.992h4.143l-5.109,14.656
		c-0.987,2.825-1.768,4.578-2.343,5.257s-1.725,1.019-3.449,1.019c-0.347,0-0.625-0.002-0.835-0.007s-0.524-0.021-0.944-0.048
		V168.357z"/>
	<path d="M378.481,165.5h-3.896v-20.152h3.896V165.5z"/>
	<path d="M388.185,156.436c0.726-0.091,1.244-0.205,1.557-0.342c0.56-0.236,0.84-0.605,0.84-1.107c0-0.61-0.215-1.032-0.645-1.265
		s-1.061-0.349-1.892-0.349c-0.933,0-1.594,0.229-1.981,0.684c-0.277,0.338-0.463,0.793-0.555,1.367h-3.76
		c0.082-1.303,0.448-2.374,1.099-3.213c1.034-1.312,2.81-1.969,5.327-1.969c1.639,0,3.095,0.324,4.367,0.971
		c1.272,0.647,1.908,1.869,1.908,3.664v6.836c0,0.475,0.009,1.049,0.027,1.723c0.027,0.511,0.104,0.857,0.232,1.039
		c0.128,0.183,0.319,0.333,0.574,0.451v0.574h-4.238c-0.118-0.301-0.2-0.583-0.246-0.848c-0.046-0.264-0.082-0.564-0.109-0.902
		c-0.541,0.584-1.164,1.08-1.87,1.49c-0.844,0.482-1.797,0.725-2.86,0.725c-1.357,0-2.478-0.385-3.362-1.155
		s-1.327-1.861-1.327-3.274c0-1.832,0.712-3.158,2.135-3.979c0.78-0.446,1.929-0.766,3.443-0.957L388.185,156.436z M390.567,158.254
		c-0.25,0.155-0.502,0.28-0.756,0.376s-0.603,0.185-1.046,0.267l-0.887,0.164c-0.832,0.146-1.429,0.324-1.791,0.533
		c-0.614,0.355-0.921,0.907-0.921,1.654c0,0.666,0.188,1.146,0.562,1.442c0.374,0.296,0.83,0.444,1.367,0.444
		c0.852,0,1.636-0.246,2.354-0.738c0.717-0.492,1.089-1.39,1.117-2.693V158.254z"/>
	<path d="M410.579,152.389c1.114,1.413,1.672,3.236,1.672,5.469c0,2.315-0.55,4.234-1.649,5.756
		c-1.099,1.522-2.634,2.283-4.604,2.283c-1.236,0-2.23-0.246-2.981-0.738c-0.449-0.291-0.935-0.802-1.457-1.531v1.873h-3.842
		v-20.125h3.896v7.164c0.495-0.692,1.041-1.221,1.638-1.586c0.706-0.455,1.605-0.684,2.696-0.684
		C407.921,150.27,409.464,150.977,410.579,152.389z M407.322,161.467c0.561-0.811,0.841-1.877,0.841-3.199
		c0-1.057-0.138-1.932-0.414-2.625c-0.523-1.312-1.488-1.969-2.895-1.969c-1.424,0-2.403,0.643-2.936,1.928
		c-0.276,0.684-0.414,1.568-0.414,2.652c0,1.276,0.285,2.334,0.854,3.172c0.57,0.839,1.438,1.258,2.605,1.258
		C405.976,162.684,406.762,162.278,407.322,161.467z"/>
	<path d="M427.386,163.677c-1.258,1.553-3.167,2.329-5.729,2.329s-4.471-0.776-5.729-2.329c-1.258-1.552-1.887-3.422-1.887-5.607
		c0-2.149,0.629-4.011,1.887-5.587c1.258-1.575,3.167-2.363,5.729-2.363s4.471,0.788,5.729,2.363
		c1.258,1.576,1.887,3.438,1.887,5.587C429.272,160.255,428.644,162.125,427.386,163.677z M424.269,161.523
		c0.61-0.811,0.916-1.961,0.916-3.454s-0.306-2.642-0.916-3.447s-1.485-1.208-2.625-1.208s-2.017,0.402-2.632,1.208
		s-0.923,1.954-0.923,3.447s0.308,2.644,0.923,3.454s1.492,1.215,2.632,1.215S423.658,162.334,424.269,161.523z"/>
	<path d="M440.34,150.249c0.05,0.005,0.162,0.012,0.335,0.021v3.992c-0.246-0.027-0.465-0.045-0.656-0.055
		c-0.191-0.009-0.347-0.014-0.465-0.014c-1.567,0-2.62,0.511-3.158,1.531c-0.301,0.574-0.451,1.459-0.451,2.652v7.123h-3.924
		v-14.902h3.719v2.598c0.602-0.993,1.126-1.672,1.572-2.037c0.729-0.61,1.677-0.916,2.844-0.916
		C440.229,150.242,440.29,150.244,440.34,150.249z"/>
	<path d="M448.86,156.436c0.726-0.091,1.244-0.205,1.557-0.342c0.56-0.236,0.84-0.605,0.84-1.107c0-0.61-0.215-1.032-0.645-1.265
		s-1.061-0.349-1.892-0.349c-0.933,0-1.594,0.229-1.981,0.684c-0.277,0.338-0.463,0.793-0.555,1.367h-3.76
		c0.082-1.303,0.448-2.374,1.099-3.213c1.034-1.312,2.81-1.969,5.327-1.969c1.639,0,3.095,0.324,4.367,0.971
		c1.272,0.647,1.908,1.869,1.908,3.664v6.836c0,0.475,0.009,1.049,0.027,1.723c0.027,0.511,0.104,0.857,0.232,1.039
		c0.128,0.183,0.319,0.333,0.574,0.451v0.574h-4.238c-0.118-0.301-0.2-0.583-0.246-0.848c-0.046-0.264-0.082-0.564-0.109-0.902
		c-0.541,0.584-1.164,1.08-1.87,1.49c-0.844,0.482-1.797,0.725-2.86,0.725c-1.357,0-2.478-0.385-3.362-1.155
		s-1.327-1.861-1.327-3.274c0-1.832,0.712-3.158,2.135-3.979c0.78-0.446,1.929-0.766,3.443-0.957L448.86,156.436z M451.243,158.254
		c-0.25,0.155-0.502,0.28-0.756,0.376s-0.603,0.185-1.046,0.267l-0.887,0.164c-0.832,0.146-1.429,0.324-1.791,0.533
		c-0.614,0.355-0.921,0.907-0.921,1.654c0,0.666,0.188,1.146,0.562,1.442c0.374,0.296,0.83,0.444,1.367,0.444
		c0.852,0,1.636-0.246,2.354-0.738c0.717-0.492,1.089-1.39,1.117-2.693V158.254z"/>
	<path d="M456.999,153.51v-2.775h2.078v-4.156h3.855v4.156h2.42v2.775h-2.42v7.875c0,0.611,0.077,0.991,0.232,1.142
		s0.629,0.226,1.422,0.226c0.118,0,0.244-0.002,0.376-0.007s0.262-0.011,0.39-0.021v2.912l-1.846,0.068
		c-1.841,0.063-3.099-0.255-3.773-0.957c-0.438-0.446-0.656-1.135-0.656-2.064v-9.174H456.999z"/>
	<path d="M480.282,163.677c-1.258,1.553-3.167,2.329-5.729,2.329s-4.471-0.776-5.729-2.329c-1.258-1.552-1.887-3.422-1.887-5.607
		c0-2.149,0.629-4.011,1.887-5.587c1.258-1.575,3.167-2.363,5.729-2.363s4.471,0.788,5.729,2.363
		c1.258,1.576,1.887,3.438,1.887,5.587C482.169,160.255,481.54,162.125,480.282,163.677z M477.165,161.523
		c0.61-0.811,0.916-1.961,0.916-3.454s-0.306-2.642-0.916-3.447s-1.485-1.208-2.625-1.208s-2.017,0.402-2.632,1.208
		s-0.923,1.954-0.923,3.447s0.308,2.644,0.923,3.454s1.492,1.215,2.632,1.215S476.555,162.334,477.165,161.523z"/>
	<path d="M493.236,150.249c0.05,0.005,0.162,0.012,0.335,0.021v3.992c-0.246-0.027-0.465-0.045-0.656-0.055
		c-0.191-0.009-0.347-0.014-0.465-0.014c-1.567,0-2.62,0.511-3.158,1.531c-0.301,0.574-0.451,1.459-0.451,2.652v7.123h-3.924
		v-14.902h3.719v2.598c0.602-0.993,1.126-1.672,1.572-2.037c0.729-0.61,1.677-0.916,2.844-0.916
		C493.125,150.242,493.187,150.244,493.236,150.249z"/>
	<path d="M496.442,168.357l0.492,0.027c0.383,0.018,0.747,0.004,1.094-0.041c0.347-0.046,0.638-0.15,0.875-0.314
		c0.228-0.155,0.439-0.479,0.636-0.971s0.28-0.793,0.253-0.902l-5.476-15.559h4.334l3.254,10.992l3.076-10.992h4.143l-5.109,14.656
		c-0.987,2.825-1.768,4.578-2.343,5.257s-1.725,1.019-3.449,1.019c-0.347,0-0.625-0.002-0.835-0.007s-0.524-0.021-0.944-0.048
		V168.357z"/>
</g>
<g>
</g>
<g>
</g>
<g>
</g>
<g>
</g>
<g>
</g>
<g>
</g>
<g>
</g>
<g>
</g>
<g>
</g>
<g>
</g>
<g>
</g>
<g>
</g>
<g>
</g>
<g>
</g>
<g>
</g>
</svg>
